<?xml version="1.0" encoding="UTF-8"?>
<!DOCTYPE svg PUBLIC "-//W3C//DTD SVG 1.1//EN" "http://www.w3.org/Graphics/SVG/1.1/DTD/svg11.dtd">
<!-- Creator: CorelDRAW X8 -->
<svg xmlns="http://www.w3.org/2000/svg" xml:space="preserve" width="5cm" height="3.50126cm" version="1.1" style="shape-rendering:geometricPrecision; text-rendering:geometricPrecision; image-rendering:optimizeQuality; fill-rule:evenodd; clip-rule:evenodd"
viewBox="0 0 2032 1423"
 xmlns:xlink="http://www.w3.org/1999/xlink">
 <defs>
  <style type="text/css">
   <![CDATA[
    .fil0 {fill:#FEFEFE;fill-rule:nonzero}
    .fil2 {fill:#606062;fill-rule:nonzero}
    .fil1 {fill:#E5E6E5;fill-rule:nonzero}
   ]]>
  </style>
 </defs>
 <g id="Capa_x0020_1">
  <metadata id="CorelCorpID_0Corel-Layer"/>
  <g id="_1867847916512">
   <path class="fil0" d="M1266 127c3,12 4,24 1,36l81 -47c10,-5 21,-8 31,-9 10,-1 21,1 32,5l305 121 79 -45 0 0 0 0c6,-3 10,-5 13,-7 4,-1 8,-2 12,-3l0 0 0 0c3,-1 7,-2 11,-3 4,-1 8,-2 11,-2 7,-2 15,-3 23,-3 7,-1 15,-1 23,-1 7,0 14,0 22,1 6,0 13,1 21,2 1,0 1,1 2,1 8,1 16,3 24,6 7,2 15,6 22,10 2,1 3,1 4,2 6,4 13,8 19,14 6,6 12,13 16,22l0 0 0 0c6,9 9,18 11,27 2,8 3,16 3,24l0 0c0,14 -3,26 -6,38 -3,10 -6,19 -10,28 0,1 -1,1 -1,2 -4,9 -9,18 -14,26 -5,9 -11,17 -16,25l0 0 0 0c-4,5 -8,10 -12,14 -4,4 -8,9 -12,12l-1 1c-3,3 -5,5 -8,8 -3,2 -7,4 -12,7l0 0 -78 46 -48 323 0 2c-1,10 -5,20 -11,29 -6,9 -14,17 -24,22l-85 49c-11,7 -23,10 -35,10 -12,0 -24,-3 -35,-9 -11,-5 -20,-14 -26,-24 -4,-7 -8,-14 -9,-22 -5,19 -10,38 -15,57 -10,29 -21,58 -33,85 -1,3 -2,6 -3,9 -2,3 -4,6 -5,9 -22,43 -47,83 -76,121 -30,39 -64,75 -101,106 -61,52 -130,94 -206,123 -73,28 -151,45 -233,47 -2,0 -4,0 -6,0l0 1c-2,0 -4,0 -6,-1l-4 0c-13,1 2,1 -7,1l0 0c-145,0 -279,-44 -391,-118 -109,-72 -197,-173 -253,-292 -10,-1 -19,-3 -28,-4 -15,-3 -31,-6 -46,-10l-2 -1c-26,-7 -49,-16 -70,-26 -21,-12 -40,-25 -57,-42l0 0c-11,-11 -21,-25 -29,-39 -7,-14 -12,-29 -15,-44l0 -2c-1,-5 -2,-10 -2,-14 -1,-5 -1,-10 -1,-15l0 0c0,-15 2,-29 5,-42 3,-13 8,-27 14,-41 6,-12 13,-25 21,-36 8,-12 17,-23 27,-34l0 0 0 0c19,-21 41,-42 66,-62 21,-17 43,-33 68,-49 36,-157 123,-294 244,-392 122,-100 279,-160 449,-160l0 0c60,0 118,7 174,21 57,15 112,36 163,64 17,9 29,25 35,42z"/>
   <path class="fil1" d="M1658 848l-19 -318 -133 77 -20 98 -77 45 -23 -159 -126 -99 77 -44 95 31 133 -76 -266 -176 85 -49 338 135 109 -63c9,-5 33,-10 57,-10 29,0 59,6 68,22 18,30 -31,104 -52,115l-108 63 -53 359 -85 49zm-749 503c-7,-5 -93,-74 0,-213 97,-145 149,-46 198,-153 27,-56 63,-81 99,-81 31,0 62,19 84,51 29,42 64,74 103,74 25,0 51,-12 78,-42 -101,211 -314,358 -562,364zm-255 -576c-105,0 -190,-30 -95,-170 63,-94 -68,-203 -167,-203 -23,0 -45,6 -61,20l-7 -1c106,-207 321,-349 570,-349 20,0 39,1 59,3l2 12c-155,101 33,178 15,244 -18,66 -163,106 -137,243 30,158 -53,191 -122,198 -19,2 -38,3 -57,3z"/>
   <path class="fil2" d="M1495 813c-9,55 -26,108 -49,157 -11,10 -20,18 -28,22 -10,5 -17,7 -25,7 -5,0 -11,-1 -17,-4 -9,-4 -19,-10 -30,-20 -10,-10 -21,-23 -31,-37 -13,-19 -29,-35 -48,-46 -18,-12 -39,-18 -61,-18 -25,0 -50,9 -72,26 -21,16 -40,41 -54,73 -6,11 -11,19 -15,24 -4,5 -7,8 -10,10 -6,3 -12,5 -22,8 -15,3 -39,6 -65,21 -27,15 -54,41 -84,85 -35,52 -48,98 -48,136 0,24 5,45 12,62 -150,-11 -285,-77 -385,-177 -47,-48 -87,-103 -117,-164l2 0c111,0 247,-21 401,-66 155,-46 327,-117 510,-220 15,-8 20,-27 12,-41 -8,-15 -27,-20 -42,-12 -179,101 -347,170 -497,214 -150,45 -280,64 -384,64 -9,0 -19,-1 -28,-1 -23,-64 -35,-133 -35,-205 0,-94 21,-182 59,-262 2,-1 4,-2 6,-4 5,-4 11,-7 18,-10 7,-2 15,-3 24,-3 16,0 34,4 52,11 27,10 54,28 72,48 10,11 17,21 22,32 5,10 7,20 7,30 0,11 -3,22 -11,35 -16,22 -27,43 -35,62 -7,19 -12,37 -12,54 0,20 6,39 18,54 8,10 19,19 30,25 17,9 36,14 56,18 20,3 42,4 63,4 20,0 40,-1 60,-2l1 0c16,-2 33,-5 51,-11 26,-9 53,-24 73,-50 10,-14 17,-29 23,-47 5,-18 8,-38 8,-60 0,-20 -2,-42 -7,-66 -2,-10 -2,-18 -2,-26 0,-23 5,-40 15,-57 14,-25 39,-47 63,-69 12,-11 24,-22 35,-34 11,-12 21,-27 26,-44 1,-6 2,-12 2,-18 0,-10 -2,-19 -5,-27 -6,-15 -14,-26 -22,-38 -13,-17 -27,-33 -37,-48 -4,-7 -8,-14 -11,-21 -2,-6 -3,-11 -3,-16 0,-7 1,-14 8,-23 7,-10 19,-22 40,-36 2,-1 4,-3 5,-4 74,10 143,33 206,67 14,8 33,2 41,-13 8,-14 2,-33 -13,-41 -94,-51 -202,-80 -317,-80 -324,0 -595,231 -657,537l0 0c-58,37 -105,74 -140,112 -17,20 -30,40 -40,61 -10,21 -16,43 -16,65 0,7 1,15 2,22 4,24 16,46 34,63 26,27 62,45 108,58 28,7 59,12 93,16 102,239 339,406 616,406 4,0 8,0 12,0 3,1 5,0 7,0 159,-4 304,-64 416,-160 70,-60 127,-134 168,-217 3,-4 4,-7 5,-11 25,-53 43,-110 53,-170 3,-17 -9,-32 -25,-35 -17,-3 -32,8 -35,25zm163 35l15 27 86 -49c8,-5 13,-13 14,-22l51 -345 96 -55c5,-3 9,-6 13,-10 6,-6 12,-14 19,-22 9,-12 18,-27 26,-43 7,-16 12,-32 13,-51 0,-10 -2,-20 -8,-31 -6,-9 -13,-16 -21,-21 -12,-7 -24,-10 -37,-13 -12,-2 -25,-3 -37,-3 -14,0 -27,1 -39,3 -6,1 -12,2 -17,4 -6,2 -11,3 -17,7l-95 55 -325 -129c-8,-3 -18,-3 -26,2l-85 49c-9,5 -15,15 -16,25 0,11 5,21 14,27l225 148 -78 45 -82 -27c-8,-3 -17,-2 -25,2l-78 45c-8,5 -14,14 -15,24 -1,10 4,20 12,26l116 92 21 146c2,10 8,19 17,23 9,5 20,4 29,-1l78 -45c7,-4 12,-11 14,-20l17 -85 79 -45 16 269c0,11 6,20 16,25 9,5 20,5 29,0l-15 -27 31 -1 -20 -318c0,-11 -6,-20 -16,-25 -9,-5 -20,-5 -29,0l-133 77c-7,4 -13,11 -15,20l-17 85 -27 15 -16 -114c-1,-8 -5,-15 -11,-20l-91 -71 27 -15 82 27c8,3 17,2 25,-2l132 -77c10,-5 15,-15 16,-25 0,-11 -5,-21 -14,-26l-225 -149 30 -17 324 129c8,3 18,3 26,-2l109 -63 -2 -3 2 4 0 -1 -2 -3 2 4c0,-1 2,-1 4,-2 8,-2 23,-4 38,-4 12,0 25,1 33,4 4,1 8,2 9,3l1 1 3 -4 -4 3 1 1 3 -4 -4 3 4 -3 -4 1 0 2 4 -3 -4 1 0 2c0,3 -2,10 -5,18 -4,12 -12,26 -20,37 -4,5 -8,10 -11,14 -2,1 -3,3 -4,3l-1 1 0 0 3 5 -3 -5 0 0 3 5 -3 -5 -108 63c-9,4 -14,12 -15,22l-51 344 -72 42 15 26 31 -1 -31 1zm-1432 -190c-1,18 -2,36 -2,53 0,70 10,137 30,200 -35,-5 -65,-13 -88,-23 -21,-9 -36,-19 -46,-29 -10,-11 -15,-20 -17,-31 -1,-4 -1,-8 -1,-12 0,-12 3,-25 10,-39 10,-22 29,-46 55,-71 17,-15 37,-31 59,-48zm1168 402c-30,42 -65,81 -105,115 -100,85 -228,139 -369,145 -2,-3 -6,-7 -9,-12 -7,-11 -14,-28 -14,-51 0,-24 8,-58 38,-102 22,-34 41,-52 56,-62 11,-7 21,-11 31,-13 8,-2 16,-4 25,-6 7,-1 14,-3 22,-6 12,-5 25,-13 36,-24 11,-12 21,-27 30,-46 12,-25 25,-41 37,-50 12,-10 23,-13 34,-13 9,0 19,3 30,9 10,6 20,15 29,28 16,23 34,44 54,60 11,8 22,15 35,20 12,5 26,8 39,8l1 0zm-1005 -689c22,-32 47,-63 74,-90 110,-110 260,-178 427,-179 -3,4 -6,7 -8,11 -13,18 -19,39 -19,58 0,21 7,40 16,56 13,24 31,44 43,61 7,8 12,16 15,22 3,6 4,10 4,11l0 2c-1,3 -3,7 -6,12 -7,9 -17,20 -31,32 -20,18 -45,39 -66,67 -11,14 -21,30 -27,48 -7,18 -11,39 -11,61 0,12 1,24 3,37 4,21 6,39 6,55 0,23 -4,40 -9,53 -5,10 -10,17 -16,24 -9,9 -20,16 -33,20 -13,5 -28,8 -43,10l3 30 -2 -30c-18,1 -37,2 -55,2 -34,0 -65,-4 -83,-12 -10,-3 -15,-8 -18,-12 -3,-4 -5,-7 -5,-16 0,-7 2,-17 8,-31 5,-14 15,-31 28,-51 15,-22 22,-46 22,-69 0,-26 -9,-51 -22,-72 -20,-33 -50,-59 -83,-79 -34,-19 -72,-31 -109,-31 -1,0 -2,0 -3,0z"/>
  </g>
 </g>
</svg>
